<?xml version="1.0" encoding="UTF-8" standalone="no"?>
<svg width="355px" height="314px" viewBox="0 0 355 314" version="1.1" xmlns="http://www.w3.org/2000/svg" xmlns:xlink="http://www.w3.org/1999/xlink">
    <!-- Generator: Sketch 39.1 (31720) - http://www.bohemiancoding.com/sketch -->
    <title>ReactJS Vienna</title>
    <desc>Created with Sketch.</desc>
    <defs></defs>
    <g id="logo" stroke="none" stroke-width="1" fill="none" fill-rule="evenodd">
        <g id="Group-2" transform="translate(5.000000, -26.000000)">
            <g id="ReactJS-Vienna">
                <g id="Group" stroke="#607096" stroke-width="9">
                    <ellipse id="Oval-1" cx="172.5" cy="183" rx="172.5" ry="67"></ellipse>
                    <ellipse id="Oval-1" transform="translate(172.500000, 183.000000) rotate(58.000000) translate(-172.500000, -183.000000) " cx="172.5" cy="183" rx="172.5" ry="67"></ellipse>
                    <ellipse id="Oval-1" transform="translate(172.500000, 183.000000) rotate(121.000000) translate(-172.500000, -183.000000) " cx="172.5" cy="183" rx="172.5" ry="67"></ellipse>
                </g>
                <path d="M136.864258,140.551758 C136.864258,140.551758 131.097656,225.768555 174.53418,234.585938 C216.704018,224.187271 210.975586,140.851562 210.975586,140.851562 L136.864258,140.551758 Z" id="Path-6" fill="#FAFAFA"></path>
                <path d="M182.542189,143.113314 L182.542189,168.290305 L208.226556,168.290305 C208.929471,157.327039 209.170514,145.298819 209.209911,143.113314 L182.542189,143.113314 Z M165.446405,168.290305 L165.446405,143.113314 L138.778338,143.113314 C138.818079,145.298819 139.059642,157.327039 139.762383,168.290305 L165.446405,168.290305 Z M206.393588,184.767749 L182.542361,184.767749 L182.542361,228.799166 C187.418182,225.753133 191.788934,220.639694 194.84008,215.738451 C199.906317,207.599698 204.284153,195.724453 206.393588,184.767749 Z M165.446405,228.799166 L165.446405,184.767749 L141.595179,184.767749 C143.70444,195.724453 148.082795,207.599698 153.149032,215.738624 C156.200523,220.639867 160.570412,225.753306 165.446405,228.799166 Z" id="path7950-copy" fill="#FF6363"></path>
            </g>
        </g>
    </g>
</svg>